<?xml version="1.0" standalone="no"?>
<!DOCTYPE svg PUBLIC "-//W3C//DTD SVG 20010904//EN"
 "http://www.w3.org/TR/2001/REC-SVG-20010904/DTD/svg10.dtd">
<svg version="1.0" xmlns="http://www.w3.org/2000/svg"
 width="1080.000000pt" height="1080.000000pt" viewBox="0 0 1080.000000 1080.000000"
 preserveAspectRatio="xMidYMid meet">

<g transform="translate(0.000000,1080.000000) scale(0.100000,-0.100000)"
fill="#000000" stroke="none">
<path d="M1957 9139 c-375 -27 -754 -173 -1070 -411 -108 -81 -337 -312 -412
-416 -231 -318 -351 -624 -402 -1017 -16 -128 -17 -237 -16 -1289 1 -688 6
-1153 11 -1158 14 -14 18 -5 52 147 120 529 352 960 701 1302 127 124 182 171
308 261 302 216 632 367 963 442 257 58 29 54 3068 60 l2785 5 66 23 c128 43
232 130 289 242 68 134 64 81 68 969 2 715 1 806 -13 827 l-15 24 -3133 -1
c-1722 -1 -3185 -6 -3250 -10z"/>
<path d="M2465 6023 c-193 -12 -469 -68 -657 -132 -946 -322 -1646 -1219
-1739 -2225 -15 -159 -6 -470 16 -616 132 -849 659 -1571 1420 -1944 256 -126
449 -191 710 -239 l120 -22 3000 -2 c1789 -2 3006 1 3014 6 12 8 15 129 15
813 1 891 3 861 -66 990 -37 69 -137 167 -208 203 -116 59 71 55 -2798 55
-2928 0 -2713 -5 -2862 68 -188 92 -304 293 -286 494 12 131 79 265 175 349
57 51 168 104 245 118 41 8 661 11 2005 11 1706 0 1954 2 2010 15 186 44 327
174 387 355 17 51 19 114 22 866 3 737 1 813 -13 828 -15 15 -205 16 -2238 14
-1222 -1 -2244 -3 -2272 -5z"/>
<path d="M9470 4221 c-236 -52 -425 -154 -590 -320 -139 -139 -231 -297 -297
-506 l-28 -90 0 -1055 0 -1055 42 -86 c33 -67 57 -99 111 -151 38 -35 93 -77
123 -92 l54 -27 7 200 c7 221 16 279 59 392 73 190 217 343 410 433 107 51
174 65 350 76 338 21 585 126 800 340 121 120 207 253 265 407 24 62 24 70 24
402 0 378 1 369 -78 527 -141 281 -415 501 -733 590 -130 36 -389 44 -519 15z"/>
</g>
</svg>
